<?xml version="1.0" encoding="utf-8"?>
<!-- Generator: Adobe Illustrator 18.0.0, SVG Export Plug-In . SVG Version: 6.00 Build 0)  -->
<!DOCTYPE svg PUBLIC "-//W3C//DTD SVG 1.1//EN" "http://www.w3.org/Graphics/SVG/1.1/DTD/svg11.dtd">
<svg version="1.1" id="Layer_1" xmlns="http://www.w3.org/2000/svg" xmlns:xlink="http://www.w3.org/1999/xlink" x="0px" y="0px"
	 viewBox="-60 -52 1137 2024" enable-background="new -60 -52 1137 2024" xml:space="preserve">
<g>
	<path fill="#2B2A29" d="M808.8,0h0.8c2.8,4.01,4.27,8.72,6.21,13.17c11.51,27.66,24.82,55.4,45.85,77.2
		c23.05,23.91,52.73,39.73,77.71,61.36c11.96,10.39,22.8,22.27,30.89,35.96c10.08,16.79,15.75,35.8,19.48,54.9
		c6.45,33.76,7.84,68.2,9.44,102.46c2.45,62.89,3.16,125.94-0.94,188.78c-1.95,26.8-4.46,53.66-10.36,79.92
		c-6.69,30.1-18.07,59.11-33.33,85.89c-16.48,29.06-37.18,55.56-59.94,79.94c-20.82,22.46-43.13,43.48-65.93,63.89
		c10.34,15.54,20.9,31.03,29.08,47.86c15.44,31.35,26.22,64.96,32.36,99.35c6.86,40.48,6.99,82.1,0.15,122.59
		c-5.81,35.44-16.4,70.26-32.76,102.3c-7.25,14.02-14.85,27.94-24.38,40.57c-9.46,13.13-19.11,26.13-29.11,38.86
		c-0.89,1.15-1.69,2.41-1.98,3.88c-7.82,36.94-16.22,73.77-24.34,110.65c-2.42,11.18-5.13,22.32-6.49,33.7
		c-6.38,43.29-7.76,87.28-4.23,130.89c3.09,33.74,8.96,67.14,13.65,100.68c9.77-0.03,19.6,0.51,29.32-0.81
		c21.33-2.7,41.47-11.33,59.82-22.27c26.61-16.06,50.59-36.55,70.51-60.42c20.8-25.02,36.91-54.86,41.57-87.38
		c5.48-37.61-0.81-75.71-9.28-112.38c-5.38-23.18-12.1-46.02-18.46-68.94c17.42,32.37,35.01,64.87,47.47,99.56
		c8.71,23.96,14.25,49.13,15.42,74.64v12.8c-1.03,38.01-10.33,75.48-24.9,110.49c-13.33,31.88-30.96,62.12-53.49,88.39
		c-18.08,21.12-39.34,39.55-63.03,54.12c-31.4,19.43-66.03,32.78-100.62,45.36c-11.61,24.09-33.36,40.7-49.74,61.26
		c-6.94,8.7-12.87,18.42-21.67,25.43c-5.32,4.23-11.19,7.79-17.41,10.53c-18.76,7.86-38.92,11.91-59.13,13.69
		c-16.75,1.64-33.91,1.7-50.35-2.34c-19.94-5.11-37.58-16.74-52.5-30.65c-22.85-21.71-38.62-50.13-47.38-80.25
		c-45.47-7.91-90.63-19.52-132.73-38.72c-30.51-13.94-59.26-32.15-83.68-55.24c-22.65-21.2-41.38-46.31-56.87-73.11
		c-36.39-62.92-53.12-136.15-52.4-208.55c0.34-41.67,5.41-83.63,18.43-123.32c-3.94-4.82-7.85-9.65-11.53-14.67
		c-20.09-26.93-34.32-58.21-41.03-91.16c-11.31-54.88-9.33-112.47,5.61-166.47c8.49-31.31,20.44-61.52,32.03-91.77
		c13.77-35.75,26.31-71.99,37.06-108.76c4.99-17.73,10.2-35.53,12.42-53.87c0.58-6.9,1.48-15.11-3.87-20.48
		c-2.12,5.68-3.35,11.64-5.12,17.44c-5.29,18.07-13.01,35.37-22.51,51.61c-17.4,29.32-38.08,56.5-57.49,84.48
		c-16.42,23.71-33.21,47.73-43.12,75.04c-6.07,16.42-8.01,34.38-4.83,51.65c3.14,18.63,10.54,36.23,19.11,52.97
		c2.33,4.83,5.16,9.47,6.79,14.61c-17.55-17.32-33.37-36.82-44.41-58.99c-9.83-19.71-15.23-41.45-17.01-63.35
		c-1.4-19.05-0.21-38.47,5.26-56.85c5.05-17.11,13.52-33.01,23.41-47.78c18.55-27.46,41.09-51.98,59.42-79.59
		c9.47-14.25,16.49-30.25,19.63-47.11c-18.88,21.7-35.46,45.27-51.85,68.87c-2.81,3.85-5.43,7.93-9.19,10.96
		c0.52-5.13,2.61-9.86,4.47-14.6c8.97-22.86,20.56-44.68,28.04-68.12c7.23-22.26,6.62-46.12,4.08-69.11
		c-2.03,5.63-3.06,11.55-5.14,17.16c-4.28,12.49-11.4,23.93-20.52,33.46c-11.36,11.9-25.01,21.85-40.38,27.88
		c-15.54,5.9-32.29,8.32-48.85,8.56c13.01-3.56,26.22-7.03,38.06-13.67c12.05-6.38,21.89-16.32,29.38-27.61
		c9.56-14.25,15.93-30.34,21.14-46.61c5.59-17.44,10.45-35.12,16.96-52.25c7.26-19.23,15.75-37.97,24.32-56.65
		c-11.08-22.88-25.32-44.02-37.56-66.26c-4.39-8.4-9.29-16.94-10.26-26.55c-0.87-7.36,2.72-15.16,9.3-18.76
		c7.33-4.1,16.26-2.95,23.98-0.63c19.25,6.06,36.85,16.33,53.93,26.91c13.51-27.4,26.32-55.68,45.95-79.39
		c10.46-12.53,22.86-23.31,35.99-32.96c21.99-16.2,45.45-30.25,68.99-44.06c4.35-2.6,8.9-4.91,12.97-7.96
		c-21.74,9.26-43.29,18.99-64.53,29.36c-24.21,11.79-47.45,25.46-70.31,39.68c-24.39,15.16-48.55,30.72-72.69,46.29
		c-4,2.54-7.89,5.29-12.14,7.4c5.49-5.67,11.57-10.74,17.27-16.19c18.97-17.86,37.52-36.77,50.43-59.62
		c11.11-19.48,19.33-40.41,29.64-60.3c12.28-23.72,26.62-47.44,48.21-63.83c15.5-11.78,33.49-19.75,51.77-26.14
		c2.92-0.98,5.75-2.23,8.36-3.88c-5.93-1.93-12.17-2.3-18.3-3.21c-22.88-3.01-45.69-7.13-67.84-13.71
		c-33.33-9.72-64.5-26.17-92.31-46.84c-13.76-10.4-26.98-21.94-36.81-36.24c-6.57-9.43-11.18-20.2-13.56-31.44
		c3.94,3.79,7.23,8.16,10.91,12.2c23.32,26.21,52.61,47.58,85.87,59.22c36.1,12.77,74.88,14.89,112.85,14.78
		c39.5-0.6,80.09-3.98,116.63-20.17c-5.92-0.08-11.79,0.81-17.68,1.23c-24.28,2.12-48.85,1.92-72.94-2
		c-18.45-3.01-36.62-7.56-54.43-13.2c-10.61-3.42-21.17-7.12-31.22-11.98c-7.1-3.45-14.13-7.7-18.79-14.26
		c3.5,0.43,6.94,1.17,10.36,2.03c26.82,6.51,54.56,9.82,82.16,8.05c22.47-1.57,44.58-7.24,65.29-16.08
		C429.38,81.51,474,48.08,526.41,31.5c36.79-11.98,76.45-15.85,114.67-9.23c34.6,5.85,67.32,20.52,95.95,40.61
		c29.87,20.97,56.41,46.21,82.04,72.06c5.06,4.92,9.74,10.26,15.27,14.68c-1.95-3.91-4.43-7.51-6.74-11.2
		c-9.57-15.23-17.39-31.79-21.07-49.48c-4.06-20.03-3.21-40.67-1.4-60.91C806.18,18.67,806.81,9.22,808.8,0 M550.02,71.88
		c-23.21,6.77-45.53,16.15-67.89,25.26c-23.17,9.64-46.95,17.92-71.4,23.64c-7,1.77-14.15,2.92-21.09,4.95
		c1.02,0.5,2.12,0.8,3.26,0.85c9.67,0.84,19.35,1.94,29.07,1.9c25.35,0.2,50.34-4.76,74.97-10.25
		c22.47-5.03,44.76-10.84,67.08-16.45c24.09-5.8,49.03-9.19,73.82-7.1c8.48,0.96,17.13,2.32,24.92,5.98
		c-8.26,0.14-16.49-1.16-24.75-0.62c-23.12,0.71-45.81,5.99-67.96,12.33c-33.21,9.75-65.91,22.56-94.8,41.89
		c-22.76,15.02-42.33,34.29-60.29,54.68c-10.25,11.81-20.46,23.71-29.78,36.25c6.8-5.49,12.97-11.73,19.49-17.56
		c30.02-27.15,60.92-54.01,96.65-73.45c36.69-20.24,77.92-31.83,119.65-34.87c44.71-3.34,90.46,3.2,131.69,21.11
		c10.5,4.43,20.25,10.36,30.47,15.33c-2.59-3.04-5.81-5.42-8.78-8.05c-23.64-19.87-46.53-40.98-73.16-56.9
		c-27.07-16.58-58.32-26.66-90.14-27.45C590.39,62.64,569.79,66.05,550.02,71.88 M570.92,146.95
		c-19.15,5.35-37.32,13.98-53.88,24.95c-28.66,19.08-52.94,44.3-72.54,72.5c-20.08,28.54-32.95,61.21-45.63,93.49
		c-13.79,35.61-29.46,70.46-46.21,104.77c-15.25,31.01-30.7,61.98-48.24,91.77c-5.45,9.47-11.79,18.37-18.45,27
		c8.63-6.07,16.84-12.74,24.44-20.07c22.09-21.59,38.6-47.96,55.18-73.81c6.83-10.41,12.74-21.43,19.98-31.54
		c-0.94,3.69-2.61,7.13-4.01,10.66c-12.62,30.77-25.63,61.43-40.89,91.01c-15.29,30.05-34.31,58.12-55.75,84.11
		c-6.45-1.54-11.29-6.39-16.28-10.43c-11.76-10.57-23.11-21.69-32.87-34.16c-10.77-13.44-21.57-27.14-35.21-37.83
		c-13.62-10.97-28.22-20.69-43.31-29.52c-17.08-10.15-35.39-18.29-51.4-30.19c7.59,8.59,13.79,18.26,19.22,28.33
		c10.3,18.26,21.04,36.37,29.15,55.75c8.93,20.91,16.46,42.41,26.16,62.98c3.6,7.16,6.68,14.79,12.33,20.64
		c12.64,13.82,26.72,26.22,40.48,38.89c-7.88-13.7-13.41-28.56-19.43-43.12c-4.33-11.47-10.31-22.18-15.74-33.14
		c-6.85-13.71-13.64-27.48-19.33-41.72c-1.87-5.07-4.11-10.23-3.89-15.75c3.81,0.13,6.59,3.02,9.11,5.55
		c6.96,7.54,12.65,16.13,18.23,24.72c9.45,15.25,19.23,30.5,25.72,47.31c5.46,15.93,10.92,32.09,12.45,48.96
		c0.09,3.97,0.57,8.78-2.47,11.85c-3.87,2.77-8.87,1.15-13.02-0.04c-15.37,17-30.88,33.89-45.61,51.45
		c5.07-2.8,9.58-6.47,14.35-9.71c28.15-19.9,55.76-40.63,81.67-63.38C299,648.4,321.61,626.3,343.99,604
		c2.07-1.87,3.93-4.35,6.84-4.88c-0.83,5.49-3.12,10.59-4.99,15.77c-18.05,46.94-36.23,93.85-55.9,140.14
		c-15.01,35.27-31.38,69.96-48.88,104.06c-2.16,4.4-4.71,8.66-6.12,13.39c3.27-1.34,5.63-4.04,8.21-6.33
		c32.18-29.85,62.94-61.37,90.09-95.91c22.53-28.43,42.38-58.87,61.25-89.82c19.59-32.12,37.83-65.03,55.96-97.98
		c3.13-5.37,5.83-11.07,9.91-15.82c0.92,3.11-0.03,6.3-0.46,9.4c-11.76,65.08-24.26,130.23-44.33,193.34
		c-4.52,15.26-10.16,30.18-14.53,45.48c21.34-39.49,37.78-81.48,51.68-124.12c13.18-40.44,25.31-81.22,38.25-121.74
		c13.42-42.27,27.67-84.27,43.11-125.85c12.34-33.07,25.3-65.94,40.06-98.01c15.75-34.06,34.21-67.05,57.15-96.83
		c3.76-5.11,7.96-9.92,11.33-15.31c-16.07,12.27-30.63,26.54-43.51,42.13c-12.11,14.85-22.8,30.8-33.18,46.9
		c-6.48,9.72-12.13,20-18.85,29.56c4.75-10.88,10.14-21.48,15.37-32.13c15.8-31.03,33.88-61.56,58.97-86.05
		c21.22-20.86,47.27-37.68,76.48-44.55c23.61-5.6,48.47-4.92,72.02,0.62c19.98,4.7,38.95,12.97,57.01,22.63
		c9.5,4.88,18.34,10.99,27.96,15.64c-4.36-5.79-9.64-10.82-14.84-15.84c-21.11-19.32-47.32-31.92-73.76-42.21
		c-21.44-8.26-43.46-15.01-65.82-20.28c-21.83-5.09-44.06-8.79-66.48-9.62C612.77,139.08,591.38,141.15,570.92,146.95
		 M689.77,252.74c-22.99,16.16-39.71,39.56-53.12,63.91c-18.35,33.62-30.9,69.99-42.65,106.33
		c-13.28,41.55-25.26,83.51-38.83,124.97c-12.82,39.17-26.67,78.01-41.9,116.3c-12.85,32.18-26.67,64.07-43.72,94.29
		c-10.82,19.52-23.05,38.28-32.52,58.53c-7.12,15.2-12.64,31.28-14.99,47.95c-2.84,19.53-1.09,39.65,4.63,58.52
		c-14.1,8.53-27.96,17.46-41.36,27.04c-12.02-15.99-21.89-33.79-27.78-52.97c-5.3-17.24-7.08-35.58-4.95-53.5
		c2.69-22.94,10.31-44.97,19.45-66.06c4.1-9.89,9.31-19.3,13.13-29.29c-4.94,6.93-9.12,14.37-13.87,21.44
		c-10.57,16.28-21.64,32.25-33.47,47.65c-22.46,29-47.08,56.24-71.74,83.37c7.21,2.72,10.82,10.11,14.46,16.37
		c10.31,20.03,17.26,41.58,23.57,63.14c4.93,16.62,4.69,34.14,3.97,51.29c-0.82,12.09-1.72,24.51-6.54,35.78
		c9.57-1.77,19.58-2.04,28.72-5.64c11.03-6.1,21.4-13.32,32.17-19.86c-0.81,3.69-3.34,6.59-5.92,9.2
		c-7.15,6.97-15.14,13.1-23.58,18.43c-10.99,5.29-23.47,5.86-34.89,9.9c-3.4,1.16-7.07,2.97-8.54,6.48
		c-1.68,4.26-0.19,8.9,1.28,13.01c4.8,12.42,12.97,23.24,22.08,32.82c6.53,7.15,13.17,14.24,18.88,22.09
		c8.44,11.55,15.53,24,22.5,36.47c18.09,32.67,33.79,66.58,49.64,100.36c17.3,36.9,34.52,73.9,48.87,112.07
		c-1.22-14.72-3.3-29.46-2.41-44.26c0.05-2.46,0.89-4.78,1.98-6.94c3.92,2.06,5.75,6.36,7.62,10.13
		c4.82,10.76,8.1,22.12,11.29,33.44c6.3,23.01,11.43,46.31,16.21,69.67c4,19.46,7.7,38.99,9.97,58.73
		c3.74,29.49,6.12,59.35,3.55,89.04c-1.56,10.94-0.31,22.01-1.05,33.01c-0.67,27.75-4.86,55.3-5.21,83.07
		c-0.17,19.34,0.99,38.89,5.66,57.71c3.48,5.45,8.83,10.89,15.64,11.41c6.72-0.06,10.71-6.58,12.6-12.24
		c4.47-13.82,4.6-28.55,5.33-42.92c0.66-11.14,0.08-22.33,0.85-33.46c4.63,23.35,7.6,47.64,3.09,71.27
		c-1.63,9.56-4.29,18.89-6.87,28.22c-1.2,3.41-0.33,6.98,0.74,10.31c2.19,7.43,4.39,14.89,5.7,22.55c0.29,2.68,0.93,5.7-0.5,8.21
		c-2.2,1.36-4.13-1.13-5.42-2.59c-4.3-5.2-6.65-13.04-13.88-14.9c10.36,19.06,25.24,35.78,43.5,47.61
		c7.09-17.02,4.08-35.88,2.67-53.67c-0.54-9.37-1.67-18.99,0.52-28.21c2.1,1.95,2.47,4.93,3.3,7.55
		c5.15,19.67,11.01,39.49,21.46,57.09c4.14,6.98,10.37,13.91,18.99,14.59c9.75,0.62,20.59-1.65,27.58-8.94
		c6.01-6.64,5.99-16.23,6.35-24.64c0-10.32,0.27-21.09,5.17-30.45c0.03,11.76-0.69,23.71,2.09,35.26
		c1.85,7.68,5.11,15.41,11.1,20.79c5.29,4.8,12.54,6.85,19.56,7.03c1.56-0.06,3.33,0.21,4.6-0.92c6.7-4.64,11.6-11.28,16.39-17.75
		c6.78-9.42,15.02-17.65,23.05-25.98c9.38-10.02,19.55-19.62,26.39-31.66c6.36-11,7.91-23.88,9.34-36.29
		c3.58-32.02,0.91-64.32-3.16-96.15c-3.59-29.27-7.77-58.48-9.93-87.9c-3.26-49.88,0.58-100.13,10.57-149.08
		c3.94-17.05,8.7-33.91,13.33-50.79c6.54-23.35,13.39-46.62,21.23-69.57c-8.46,10.25-16.97,20.5-26.55,29.73
		c-3.75,3.39-7.49,7.21-12.53,8.58c2.35-5.77,5.73-11.04,8.86-16.4c19.71-32.65,40.83-64.43,60.95-96.83
		c16.14-29.16,28.54-60.46,35.81-93.02c11.24-48.61,13.16-99.48,4.44-148.66c-6.56-34.69-17.57-68.62-33.58-100.12
		c-9.95-18.64-22.14-35.94-32.68-54.22c-3.79-6.68-7.61-13.4-10.12-20.68c-4.49-12.03-6.35-24.91-11.61-36.66
		c-6.29-12.8-19.58-20.63-25.17-33.89c-4.77-10.17-3-22.17,1.83-31.98c5.73-11.43,13.89-21.4,20.97-32
		c8.26-11.5,13.16-24.9,19.82-37.3c2.94-5.2,5.06-11.05,9.29-15.38c1.47,4.74,0.23,9.68-0.68,14.4c-2.62,11.7-6.3,23.14-10.4,34.4
		c-3.93,9.3-9.34,17.88-14.22,26.71c-4.26,8.17-9.72,16.33-10.27,25.8c-0.16,7.15,5.6,12.22,10.06,17.05
		c8.19,7.94,16.41,16.26,21.27,26.75c10.91-8.24,21.59-16.77,32.11-25.51c34.8-29.08,67.81-61.34,91.59-100.28
		c31.91-52.12,47.36-113.22,49.32-174.01c0.82-20.93-1.85-41.97-7.84-62.04c-8.52-28.85-23.32-55.41-40.26-80.11
		c-19.01-28.36-43.45-53.23-72.18-71.78c-27.94-17.99-60.39-30.52-93.97-30.63C732.55,232.27,708.98,239.17,689.77,252.74
		 M183.69,740.54c-4.58,11.32-10.7,21.93-16.56,32.63c-16.21,28.87-33.85,57.19-55.87,82.06c-13.46,15.63-27.92,30.59-38.9,48.16
		c-9.39,15.05-16.73,31.47-20.97,48.72c-4.38,17.07-3.79,34.94-1.15,52.24c2.28-8.12,2.84-16.62,5.02-24.77
		c8.11-35.75,26.17-68.35,47.24-98.03c18.58-26.37,39.38-51.23,55.94-78.99c10.95-18.47,18.97-38.56,24.8-59.19
		C183.36,742.66,183.58,741.25,183.69,740.54 M226.76,949.88c-15.48,22.16-29.23,45.52-41.27,69.71
		c-15.19,30.59-27.44,62.8-34.34,96.3c-8.27,40.04-10.03,82.11,0.09,121.99c5.05,20.35,12.73,39.95,21.65,58.9
		c10.8-29.48,25.95-57.28,44.24-82.77c21.78-30.42,47.54-57.81,75.09-83.06c-4.39-6.22-8.35-12.78-11.32-19.8
		c-3.48-8.45-6.49-17.96-3.71-27.04c1.89-6.43,7.27-11.05,13.24-13.66c-6.47-22.27-6.36-45.74-9.79-68.53
		c-4.85-23.73-11.43-47.11-15.2-71.07c-1.31-8.89-2.97-17.95-1.62-26.94C250.72,918.61,238.02,933.7,226.76,949.88 M358.2,1305.56
		c-19.33,52.62-23.55,111.16-8.97,165.5c9.55,36.06,27.09,70.06,51.4,98.39c20.38,23.85,45.49,43.36,72.71,58.81
		c0.03-21.83-2.32-43.58-5.29-65.19c-3.58-25.57-8.61-50.94-14.81-76.01c-8.47-35.09-20.07-69.4-33.51-102.87
		c-12.49-11.16-23.83-23.58-34.48-36.5C374.43,1334.91,365.77,1320.45,358.2,1305.56z"/>
	<path fill="#2B2A29" d="M614.49,452.55c6.64-5.03,15.85-5.49,23.45-2.52c9.81,3.63,17.53,10.99,24.6,18.43
		c13.84,14.68,24.13,32.31,32.44,50.6c5.06,10.48,7.57,21.92,11.04,32.97c4.85,19.12,9.95,38.26,12.37,57.87
		c0.56,6.7,1.83,13.98-1.41,20.22c-3.4-4.32-5.34-9.51-7.6-14.46c-8.79-20.62-16.55-41.65-24.62-62.55
		c-3.25-8.25-6.15-16.68-10.56-24.41c-10.81-20.14-24.13-39.91-43.37-52.87c-0.13-0.48-0.38-1.44-0.5-1.92
		c-0.28,0.3-0.82,0.9-1.1,1.2c0.24,0.33,0.72,0.99,0.96,1.32c-0.54,4.15-1.18,8.32-1.02,12.53c0.42,29.93,4.74,59.86,1.97,89.78
		c8.66,5.54,15.61,13.3,22.04,21.23c10.56,12.55,16.79,27.92,22.44,43.13c3.48,10.25,7.29,20.84,6.82,31.82
		c-0.25,2.82-1.45,7.86-5.3,6.84c-4.6-1.58-7.68-5.69-10.73-9.25c-16.06-20.44-26.34-44.52-39.55-66.74
		c-4.23,20.58-12.24,40.27-14.94,61.16c-0.86,7.04-1.02,14.24,0.34,21.23c1.46,8.7,6.94,15.91,11.24,23.39
		c4.86,8.37,10.89,16.16,14.55,25.17c-2.02,0.07-4.14,0.15-5.96-0.85c-5.77-2.87-10.42-7.5-14.91-12.03
		c-6.94-7.46-13.63-15.25-19.09-23.87c-7.7-15.39-7.69-33.31-5.47-50c3.22-21.95,9.32-43.42,11.56-65.53
		c2.43-20.93,0.31-41.99-0.97-62.92c-1.05-15.6-2.45-31.34-0.4-46.93C604.11,466.27,607.5,457.69,614.49,452.55z"/>
	<path fill="#2B2A29" d="M575.09,771.02c-1.08-3.84-1.73-8.28,0.63-11.78c4.16,2.36,7.64,5.69,11.09,8.96
		c14.08,13.57,26.75,28.52,40.78,42.14c21.67,17.39,46.75,29.75,69.58,45.46c11.41,8.04,22.67,16.66,31.42,27.66
		c5.41,6.86,10.07,14.44,13.1,22.66c3.64,12.98,6.16,26.38,6.51,39.88c-0.19,5.4-0.19,12.03-5.06,15.52
		c-5.77-6.97-8.27-15.92-11.83-24.09c-4.33-9.96-6.98-20.97-14.18-29.39c-15.02-19.01-36.82-30.6-56.99-43.24
		c-13.44-8.31-26.78-16.89-38.9-27.07c-4.65-3.96-9.38-7.93-13.14-12.79c-9.16-11.43-17.69-23.4-24.98-36.11
		C579.94,783.14,576.93,777.29,575.09,771.02z"/>
	<path fill="#2B2A29" d="M775.02,953.98c1.34-5.38,2.55-11.42,7.17-15.02c1.5,2,2.15,4.44,2.55,6.89
		c2.24,12.28,2.66,24.8,4.39,37.15c2.99,13.74,8.13,26.97,10.24,40.92c3.15,17.3-1.18,36.23-13.1,49.41
		c-1.69,2.1-4.46,3.67-4.69,6.62c-3.05,16.28-8.59,32.55-19.22,45.5c-7.42,9.22-16.28,17.2-25.77,24.24
		c-4.94,3.57-10.04,7.11-15.79,9.25c-3.13,1.11-7.19,1.58-9.67-1.08c-2.66-2.97-3.18-7.17-3.44-10.98
		c-0.35-8.99,1.31-17.91,3.1-26.68c-7.14,6.05-13.53,12.95-19.23,20.36c-3.26,4.13-7.13,8.45-12.54,9.52
		c-5.9,1.42-12.29-1.55-15.42-6.64c-3.58-5.82-4.72-12.71-5.54-19.37c-1.52-13.27-0.15-27.47,7.15-38.97
		c6.17-9.89,16.57-15.94,26.61-21.27c8.31-4.25,16.19-9.27,24.49-13.52c5.02-2.38,10.04-5.56,15.78-5.52
		c0.03,3.78-2.65,6.65-4.87,9.42c-4.88,5.75-10.36,10.95-15.88,16.08c-8.44,7.96-19.03,13.62-26.01,23.09
		c-6.93,8.74-13.69,19.5-11.65,31.16c0.21,2.56,2.73,4.95,5.36,3.61c6.6-2.93,11.33-8.74,16.23-13.83
		c10.18-10.8,18.65-23.44,30.9-32.1c9.78-7.21,20.69-12.66,30.97-19.09c4.38-2.79,9-5.55,12.13-9.81
		c4.85-6.36,7.25-14.37,7.24-22.33c0.01-15.53-4.44-30.62-5.08-46.09C771.71,974.52,772.91,964.14,775.02,953.98z"/>
	<path fill="#2B2A29" d="M739.12,1166.14c8.45-6.01,15.54-13.8,24.27-19.38c-7.56,13.2-21.69,21.29-28.67,34.94
		c-3.91,7.54-5.29,16-7.13,24.19c-1.41-0.81-1.37-2.56-1.73-3.91c-1.2-6.97-2.72-14.21-1.1-21.23
		C726.84,1173.79,733.84,1170.37,739.12,1166.14z"/>
	<path fill="#2B2A29" d="M740.73,1232.44c1.07-5.22,2.08-10.52,4.35-15.37c3.33,2.42,4.28,6.62,5.18,10.4
		c1.77,8.7,2.3,17.6,2.58,26.46c0.65,15.7,0.06,31.41-0.62,47.1c-0.8,20.2-4.68,40.09-8.27,59.93c-4.54,24.01-9.75,47.89-13.71,72
		c-5.83,37.84-8.36,76.32-5.43,114.54c4.34,32.5,10.2,64.81,13.04,97.5c0.22,4.03,0.87,8.22-0.48,12.15
		c-6.2-4.41-8.93-11.84-11.9-18.52c-7.96-20.01-13.33-40.93-18.47-61.81c-2.78-12.2-6-24.37-7.22-36.85
		c-5.45-46.07-1.4-92.87,8.41-138.08c5.48-26,12.12-51.74,17.93-77.67c4.46-18.1,5.76-36.75,8.66-55.12
		C736.55,1256.84,738.36,1244.59,740.73,1232.44z"/>
	<path fill="#2B2A29" d="M521.29,1257.84c3.57,1.62,4.39,5.89,5.76,9.2c5.45,16.91,8.54,34.47,11.89,51.9
		c8.86,48.11,15.01,96.66,22.02,145.06c3.58,25.59,6.93,51.23,8.41,77.04c0.43,15.32,2.95,30.61,1.56,45.96
		c-0.65,4.89-0.83,10.72-4.76,14.27c-1.69,1.56-3.69-0.33-4.47-1.88c-3.17-5.7-4.44-12.2-5.95-18.48
		c-2.64-11.24-3.71-22.79-6.73-33.93c-6.75-28.06-11.64-56.52-16.01-85.03c-6.84-42.7-11.33-85.74-14.4-128.87
		c-1.04-16.67-2.03-33.38-1.63-50.08C517.54,1274.55,517.08,1265.49,521.29,1257.84z"/>
	<path fill="#2B2A29" d="M630.68,1508.95c0.05-6.78-0.3-14.48,4.4-19.95c4.92,3.77,6.96,9.9,9.56,15.3
		c8.23,19.48,14.47,39.72,21.02,59.81c12.22,42.24,40.51,77.51,53.81,119.32c1.36,5.08,3.18,10.55,1.71,15.81
		c-0.57,2.54-3.54,1.76-5.02,0.57c-4.62-3.37-8.23-7.88-11.82-12.26c-7.29-9.14-13.8-18.86-20.33-28.54
		c-14.38-19.9-27.4-41.01-36.43-63.91c-3.78-9.06-5.73-18.72-8.04-28.22C635.33,1547.8,631.4,1528.52,630.68,1508.95z"/>
	<path fill="#2B2A29" d="M644.13,1727.03c0.53-1.89,0.46-4.47,2.57-5.33c2.11,8.64,1.42,17.77,4.3,26.28
		c2.6,8.01,7.75,15.88,15.71,19.34c5.96,2.53,12.5,0.17,17.88-2.69c10.16-5.58,19.4-12.64,29-19.09c4.45-2.87,8.71-6.26,13.77-7.96
		c2.22-0.93,4.69,0.4,5.4,2.65c1.89,5.01,1.81,10.48,1.98,15.78c-0.01,15.73-1.73,31.56-5.94,46.75
		c-2.3,7.52-4.98,15.65-11.36,20.75c-5.85,4.48-13.5,4.92-20.35,6.92c-6.03,1.59-12.71,4.04-15.73,9.95
		c-1.68,2.78-1.48,7.06,1.83,8.55c7.36,3.29,15.33-0.2,22.55-2.17c-2.74,4.67-6.28,9.32-11.51,11.31
		c-5.55,2.06-11.97,2.48-17.54,0.29c-4.62-1.8-7.19-6.63-7.79-11.33c-1.41-10,2.1-19.87,6.4-28.73c3.42-7.22,8.39-13.51,12.51-20.3
		c1.59-2.99,3.6-6.56,2.24-9.97c-1.62-1.56-4.03-1.15-6.05-1.28c-15.11,0.25-29.06-9.71-36.02-22.75
		C641.87,1752.76,641.95,1739.31,644.13,1727.03z"/>
</g>
</svg>
